# xmcd
#
# Track frame offsets:
#	150
#	16105
#	33708
#	55241
#	69283
#	87853
#	107855
#	127939
#	141694
#	152652
#	172230
#
# Disc length: 2643 seconds
# Revision: 0
# Processed by: cddbd v1.5.2PL0 Copyright (c) Steve Scherf et al.
# Submitted via: dBpowerAMP V12.0
#
DISCID=960a510b
DTITLE=Brander-Larsen - The Electric Blues Band
DYEAR=2012
DGENRE=Blues
TTITLE0=Going up The country
TTITLE1=All along the watchtower
TTITLE2=I heard it through the grapevine
TTITLE3=Woman across the river
TTITLE4=Good morning little school girl
TTITLE5=Dark eyed cajun woman
TTITLE6=Feeling allright
TTITLE7=Strange brew
TTITLE8=Yonderwall
TTITLE9=Crosseyed cat
TTITLE10=My own fault
EXTD=
EXTT0=
EXTT1=
EXTT2=
EXTT3=
EXTT4=
EXTT5=
EXTT6=
EXTT7=
EXTT8=
EXTT9=
EXTT10=
PLAYORDER=
